<svg xmlns="http://www.w3.org/2000/svg" width="512" height="512" fill="none" viewBox="0 0 512 512"><rect width="512" height="512" fill="#184230" rx="128"/><path fill="#fff" d="M256 128c-76.04 0-128 51.96-128 128s51.96 128 128 128 128-51.96 128-128-51.96-128-128-128m0 224c-58.4 0-96-37.6-96-96s37.6-96 96-96 96 37.6 96 96-37.6 96-96 96"/><path fill="#fff" d="M256 192c-35.3 0-64 28.7-64 64s28.7 64 64 64 64-28.7 64-64-28.7-64-64-64m0 96c-17.7 0-32-14.3-32-32s14.3-32 32-32 32 14.3 32 32-14.3 32-32 32"/></svg>